<?xml version="1.0" encoding="utf-8"?>
<!-- Generator: Adobe Illustrator 17.0.0, SVG Export Plug-In . SVG Version: 6.00 Build 0)  -->
<!DOCTYPE svg PUBLIC "-//W3C//DTD SVG 1.1//EN" "http://www.w3.org/Graphics/SVG/1.1/DTD/svg11.dtd">
<svg version="1.1" id="Layer_1" xmlns="http://www.w3.org/2000/svg" xmlns:xlink="http://www.w3.org/1999/xlink" x="0px" y="0px"
	 width="258.816px" height="188.956px" viewBox="0 0 258.816 188.956" enable-background="new 0 0 258.816 188.956"
	 xml:space="preserve">
<g>
	<g>
		<path fill="#4D4D4D" d="M-0.006,115.391c0,4.629,0,8.917,0,13.565c86.219,0,172.37,0,258.822,0c0-4.345,0-8.749,0-13.565
			C172.707,115.391,86.568,115.391-0.006,115.391z"/>
	</g>
	<g>
		<path fill="#4D4D4D" d="M-0.006,145.391c0,4.629,0,8.917,0,13.565c86.219,0,172.37,0,258.822,0c0-4.345,0-8.749,0-13.565
			C172.707,145.391,86.568,145.391-0.006,145.391z"/>
	</g>
	<g>
		<path fill="#4D4D4D" d="M-0.006,175.391c0,4.629,0,8.917,0,13.565c86.219,0,172.37,0,258.822,0c0-4.345,0-8.749,0-13.565
			C172.707,175.391,86.568,175.391-0.006,175.391z"/>
	</g>
	<g>
		<path fill="#4D4D4D" d="M0,86.524c0,4.703,0,8.983,0,13.591c86.296,0,172.428,0,258.839,0c0-4.448,0-8.851,0-13.591
			C172.657,86.524,86.524,86.524,0,86.524z"/>
	</g>
	<g>
		<path fill="#4D4D4D" d="M-0.012,57.579c0,4.732,0,9.019,0,13.69c56.389,0,112.655,0,169.257,0c0-4.391,0-8.909,0-13.69
			C112.896,57.579,56.611,57.579-0.012,57.579z"/>
	</g>
	<g>
		<path fill="#4D4D4D" d="M-0.038,28.767c0,4.755,0,9.067,0,13.804c56.469,0,112.844,0,169.618,0c0-1.834,0-3.465,0-5.096
			c0-2.799,0-5.598,0-8.709C112.914,28.767,56.623,28.767-0.038,28.767z"/>
	</g>
	<g>
		<path fill="#4D4D4D" d="M169.37,13.795c0-4.6,0-9.026,0-13.795C112.928,0,56.635,0,0.103,0c0,4.529,0,8.953,0,13.795
			C56.406,13.795,112.783,13.795,169.37,13.795z"/>
	</g>
</g>
<rect x="128.012" y="-20.054" fill="none" width="129" height="113.764"/>
<text transform="matrix(1 0 0 1 154.0465 72.9548)" fill="#4D4D4D" font-family="'MyriadHebrew-Regular'" font-size="131">א</text>
</svg>
