<?xml version="1.0" encoding="utf-8"?>
<!-- Generator: Adobe Illustrator 19.0.0, SVG Export Plug-In . SVG Version: 6.00 Build 0)  -->
<svg version="1.1" id="Layer_1" xmlns="http://www.w3.org/2000/svg" xmlns:xlink="http://www.w3.org/1999/xlink" x="0px" y="0px"
	 viewBox="0 0 72.3 72.3" style="enable-background:new 0 0 72.3 72.3;" xml:space="preserve">
<style type="text/css">
	.st0{fill:#FFFFFF;}
</style>
<g>
	<path class="st0" d="M0.1,61c0.2,0,0.3,0,0.5,0c2.6,0,5.3,0,7.9,0c0.5,0,0.6-0.1,0.6-0.6c0-9.1,0-18.1,0-27.2c0-0.2,0-0.4,0-0.7
		c0.2,0.2,0.3,0.3,0.4,0.4c1.3,1.3,2.5,2.5,3.8,3.8c0.2,0.2,0.3,0.5,0.3,0.8c0,7.6,0,15.2,0,22.8c0,0.2,0,0.4,0,0.7
		c0.2,0,0.4,0,0.6,0c7.1,0,14.3,0,21.4,0c0.4,0,0.6,0.1,0.6,0.6c0.2,3.8,3.9,6.8,7.7,6.2c3.5-0.6,5.8-3.3,5.8-6.9
		c0-16.3,0-32.6,0-48.8c0-2.6,0.6-5.1,2.1-7.2c0,0,0-0.1,0.1-0.2c-0.2,0-0.4,0-0.6,0c-10,0-19.9,0-29.9,0c-2.4,0-4.5,0.4-6.2,2.3
		c-1-1.2-2.1-2.2-3.5-2.8c1.9-2,4-3.3,6.6-3.8c0.4-0.1,0.7-0.1,1.1-0.2c14.1,0,28.3,0,42.4,0c0.5,0.1,1,0.2,1.5,0.3
		c4.1,1,6.9,3.6,8.3,7.6c0.4,1.1,0.6,2.2,0.5,3.5c-6,0-12,0-18,0c0,0.3,0,0.5,0,0.7c0,16.2,0,32.3,0,48.5c0,1-0.1,1.9-0.3,2.9
		c-1.2,5.2-5.6,8.8-11,8.9c-10.6,0-21.1,0-31.7,0c-4.9,0-9-3-10.6-7.6c-0.3-0.9-0.5-1.9-0.7-2.8C0.1,61.7,0.1,61.4,0.1,61z"/>
	<path class="st0" d="M0.1,14.8c0.2-1.5,1.1-2.6,2.1-3.6c0.9-0.8,1.6-1.7,2.5-2.5C6.7,7.1,9.1,7.1,11,8.9c0.5,0.5,1,1,1.5,1.5
		C9.3,13.6,6.2,16.8,3,20c-1.2-1.1-2.6-2.3-2.9-4.2C0.1,15.5,0.1,15.1,0.1,14.8z"/>
	<path class="st0" d="M7.8,18.5c1.1-1.1,2.2-2.1,3.2-3.1c0.1,0.1,0.2,0.2,0.3,0.2C17,21.3,22.7,27,28.4,32.7
		c1.3,1.3,0.9,3.1-0.4,3.7c-0.8,0.4-1.5,0.3-2.3-0.2c-0.2-0.1-0.3-0.3-0.5-0.4c-5.7-5.7-11.5-11.4-17.2-17.1
		C8,18.7,7.9,18.6,7.8,18.5z"/>
	<path class="st0" d="M18.2,52c0-0.8,0-1.5,0-2.2c9,0,18,0,27.1,0c0,0.7,0,1.4,0,2.2C36.2,52,27.2,52,18.2,52z"/>
	<path class="st0" d="M18.2,56.5c0-0.7,0-1.5,0-2.2c9,0,18,0,27.1,0c0,0.7,0,1.4,0,2.2C36.2,56.5,27.2,56.5,18.2,56.5z"/>
	<path class="st0" d="M4.7,21.7c0.5-0.5,1-1,1.6-1.6c0.1,0.1,0.2,0.1,0.3,0.2c5.7,5.7,11.4,11.3,17.1,17c0.6,0.6,0.7,1.1,0.3,1.7
		c-0.4,0.5-1,0.6-1.5,0.3c-0.1-0.1-0.3-0.2-0.4-0.3c-5.7-5.7-11.4-11.3-17.1-17C4.8,21.9,4.7,21.8,4.7,21.7z"/>
	<path class="st0" d="M12.7,13.7c0.5-0.5,1-1,1.6-1.6c0.1,0.1,0.2,0.2,0.3,0.3c5.7,5.7,11.3,11.4,17,17.1c0.6,0.6,0.7,1.1,0.3,1.6
		c-0.4,0.5-1,0.6-1.5,0.3c-0.1-0.1-0.2-0.2-0.4-0.3c-5.7-5.7-11.4-11.5-17.1-17.3C12.8,13.8,12.7,13.7,12.7,13.7z"/>
	<path class="st0" d="M25.2,41.1c0.3-0.4,0.5-0.7,0.7-1c0.2-0.3,0.3-0.7,0.4-1.1c3.4,0.5,5.5-2.8,5.1-5c0.7-0.3,1.3-0.7,2-1
		c0.9,3.5,1.8,7.2,2.7,10.9C32.4,42.9,28.8,42,25.2,41.1z"/>
	<path class="st0" d="M45.2,13.7c0,0.7,0,1.4,0,2.2c-6,0-12,0-18,0c0-0.7,0-1.4,0-2.2C33.2,13.7,39.2,13.7,45.2,13.7z"/>
	<path class="st0" d="M45.2,18.2c0,0.7,0,1.5,0,2.2c-6,0-12,0-18,0c0-0.7,0-1.5,0-2.2C33.2,18.2,39.2,18.2,45.2,18.2z"/>
</g>
</svg>
