<?xml version="1.0" encoding="utf-8"?>
<!-- Generator: Adobe Illustrator 19.0.0, SVG Export Plug-In . SVG Version: 6.00 Build 0)  -->
<svg version="1.1" id="Layer_1" xmlns="http://www.w3.org/2000/svg" xmlns:xlink="http://www.w3.org/1999/xlink" x="0px" y="0px"
	 viewBox="0 0 500 500" style="enable-background:new 0 0 500 500;" xml:space="preserve">
<style type="text/css">
	.st0{fill:#FFFFFF;}
</style>
<g id="XMLID_1_">
	<path id="XMLID_17_" class="st0" d="M232.5,300.4c0-23.1,0-46.1,0-69.2c11.8,0,23.5,0,35.6,0c0-2,0-3.2,0-4.5
		c0.2-18.3,0.2-36.7,0.6-55c0.2-11.3,2-22.4,6.1-32.7c7.7-19.3,21.1-30.2,38.4-35c6-1.7,12.2-2.7,18.3-4c19.8,0,39.7,0,59.5,0
		c0,23.6,0,47.2,0,70.7c-11.4,0-22.7-0.1-34.1,0c-3.1,0-6.2,0.3-9.3,0.8c-5.3,0.8-8,3.9-8.7,10c-0.4,3-0.6,6-0.7,9
		c-0.2,12.7-0.2,25.4-0.3,38.1c0,0.7,0.1,1.5,0.3,2.7c17.7,0,35.3,0,52.8,0c0,1.3,0,2.6,0,3.9c-0.2,0.8-0.6,1.7-0.6,2.5
		c-1.4,18.2-2.8,36.5-4.2,54.7c-0.5,6.3-0.5,6.4-6,6.4c-12.8,0.1-25.6,0.1-38.5,0.2c-1.2,0-2.3,0.1-4.3,0.2c0,67.5,0,134.5,0,201.6
		c-23,0-45.9,0-68.9,0c-0.1-66.8-0.3-133.6-0.4-200.4C255.9,300.4,244.2,300.4,232.5,300.4z"/>
</g>
<g id="XMLID_5_">
	<path id="XMLID_27_" class="st0" d="M461,39v422H39V39H461 M500,0H0v500h500V0L500,0z"/>
</g>
</svg>
