<?xml version="1.0" encoding="utf-8"?>
<!-- Generator: Adobe Illustrator 15.0.1, SVG Export Plug-In . SVG Version: 6.00 Build 0)  -->
<!DOCTYPE svg PUBLIC "-//W3C//DTD SVG 1.1//EN" "http://www.w3.org/Graphics/SVG/1.1/DTD/svg11.dtd">
<svg version="1.1" id="Layer_1" xmlns="http://www.w3.org/2000/svg" xmlns:xlink="http://www.w3.org/1999/xlink" x="0px" y="0px"
	 width="959.879px" height="959.879px" viewBox="0 0 959.879 959.879" enable-background="new 0 0 959.879 959.879"
	 xml:space="preserve">
<g id="Layer_1_1_">
	<g>
		<path fill="#FFFFFF" d="M-0.017,913.864c0-289.297,0-578.595,0-867.892c0.306-0.337,0.831-0.642,0.886-1.016
			C3.707,25.691,14.447,12.443,31.964,4.578c4.461-2.003,9.331-3.092,14.014-4.601c289.297,0,578.595,0,867.892,0
			c1.824,0.404,3.67,0.725,5.467,1.223c23.894,6.61,40.564,27.101,40.562,52.448c-0.054,282.621-0.027,565.241-0.074,847.862
			c0,4.765-0.369,9.558-0.988,14.281c-3.162,24.137-25.459,43.906-50.065,43.979c-80.486,0.234-160.976,0.089-241.462,0.089
			c-1.743,0-3.489,0-5.256,0c-0.073-1.619-0.145-2.447-0.145-3.275c-0.006-121.479,0.016-242.961-0.092-364.441
			c-0.004-4.295,1.432-5.323,5.479-5.311c37.828,0.125,75.654,0.074,113.482,0.074c1.942,0,3.887,0,5.828,0
			c6.143-47.92,12.211-95.238,18.356-143.169c-48.047,0-95.434,0-143.061,0c0-2.357,0-4.178,0-5.995
			c0-30.162-0.228-60.326,0.139-90.484c0.109-8.964,0.969-18.131,3.105-26.806c3.021-12.263,9.102-22.916,20.481-29.95
			c11.512-7.114,24.225-10.097,37.295-10.378c27.482-0.59,54.986-0.179,82.482-0.179c1.752,0,3.504,0,5.24,0
			c0-43.353,0-85.961,0-128.785c-6.207-0.748-12.185-1.735-18.199-2.138c-12.689-0.849-25.396-1.464-38.104-2.037
			c-9.928-0.448-19.862-0.868-29.799-0.987c-23.809-0.284-47.621-0.412-71.178,3.961c-16.754,3.111-32.877,8.4-48.008,16.062
			c-18.07,9.15-34.88,20.37-47.521,36.623c-7.213,9.272-14.656,18.548-20.447,28.706c-14.651,25.7-20.522,54.149-23.352,83.246
			c-1.041,10.698-1.025,21.521-1.072,32.289c-0.131,30.494-0.047,60.99-0.047,91.485c0,1.759,0,3.519,0,5.818
			c-42.069,0-83.451,0-124.69,0c0,47.812,0,95.071,0,142.882c41.674,0,83.056,0,124.45,0c0,124.465,0,248.379,0,372.789
			c-2.34,0-4.465,0-6.59,0c-150.141,0-300.284,0.008-450.426-0.041c-3.762,0-7.557-0.4-11.281-0.978
			c-18.94-2.93-32.018-13.6-39.751-30.887C2.621,923.463,1.508,918.571-0.017,913.864z"/>
	</g>
</g>
</svg>
