<?xml version="1.0" encoding="utf-8"?>
<!-- Generator: Adobe Illustrator 19.0.0, SVG Export Plug-In . SVG Version: 6.00 Build 0)  -->
<svg version="1.1" id="Layer_1" xmlns="http://www.w3.org/2000/svg" xmlns:xlink="http://www.w3.org/1999/xlink" x="0px" y="0px"
	 viewBox="0 0 50 51" style="enable-background:new 0 0 50 51;" xml:space="preserve">
<style type="text/css">
	.st0{fill:#FFFFFF;}
</style>
<g>
	<path class="st0" d="M50,6C33.3,6,16.7,6,0,6c0-2,0-4,0-6c16.7,0,33.3,0,50,0C50,2,50,4,50,6z"/>
	<path class="st0" d="M50,18c-16.7,0-33.3,0-50,0c0-2,0-4,0-6c16.7,0,33.3,0,50,0C50,14,50,16,50,18z"/>
	<path class="st0" d="M50,29c-16.7,0-33.3,0-50,0c0-2,0-4,0-6c16.7,0,33.3,0,50,0C50,25,50,27,50,29z"/>
	<path class="st0" d="M0,34c16.7,0,33.3,0,50,0c0,2,0,4,0,6c-16.7,0-33.3,0-50,0C0,38,0,36,0,34z"/>
	<path class="st0" d="M13,51c0-1.7,0-3.5,0-6c12.5,0,24.7,0,37,0c0,2,0,4,0,6C37.7,51,25.3,51,13,51z"/>
</g>
</svg>
