<?xml version="1.0" encoding="utf-8"?>
<!-- Generator: Adobe Illustrator 17.0.0, SVG Export Plug-In . SVG Version: 6.00 Build 0)  -->
<!DOCTYPE svg PUBLIC "-//W3C//DTD SVG 1.1//EN" "http://www.w3.org/Graphics/SVG/1.1/DTD/svg11.dtd">
<svg version="1.1" xmlns="http://www.w3.org/2000/svg" xmlns:xlink="http://www.w3.org/1999/xlink" x="0px" y="0px"
	 width="231.06px" height="231.06px" viewBox="0 0 231.06 231.06" enable-background="new 0 0 231.06 231.06" xml:space="preserve">
<g id="Layer_1">
</g>
<g id="Layer_2">
	<path fill="#FFFFFF" d="M0,25.53v145.99h231.06V25.53H0z M223.62,161.1H7.44V35.94h216.18V161.1z"/>
	<rect x="98.197" y="168.197" fill="#FFFFFF" width="34.667" height="26.667"/>
	<rect x="68.863" y="192.197" fill="#FFFFFF" width="93.333" height="10"/>
	<path fill="#FFFFFF" d="M168.197,191.07c0,6.145-3.684,11.126-8.229,11.126H71.092c-4.545,0-8.229-4.981-8.229-11.126V86.856
		c0-6.145,3.684-11.126,8.229-11.126h88.875c4.545,0,8.229,4.981,8.229,11.126V191.07z"/>
	<rect x="71.53" y="85.865" fill="#63320D" width="88" height="106.667"/>
	<path fill="#FFFFFF" d="M139.197,198.58c0,3.838-1.656,6.95-3.698,6.95H95.561c-2.042,0-3.698-3.112-3.698-6.95v-65.098
		c0-3.838,1.656-6.95,3.698-6.95h39.938c2.042,0,3.698,3.112,3.698,6.95V198.58z"/>
	<rect x="95.758" y="132.863" fill="#63320D" width="39.544" height="66.63"/>
	<g>
		<g>
			<path d="M99.512,168.623c1.274-0.813,2.371-1.513,3.546-2.263c1.391,2.101,2.85,4.306,4.546,6.868
				c4.5-7.218,10.346-12.674,17.84-16.247c0.086-0.041,0.373,0.339,0.599,0.552c0.877-0.358,1.789-0.73,2.741-1.118
				c0.735,0.338,1.526,0.701,2.476,1.137c0.309-0.069,0.794-0.177,1.278-0.285c-9.476,4.737-16.254,12.281-22.118,20.799
				c-1.417,2.058-3.283,2.408-4.761,0.488c-2.133-2.77-3.954-5.781-5.873-8.712C99.577,169.525,99.602,169.054,99.512,168.623z"/>
		</g>
	</g>
</g>
</svg>
