<?xml version="1.0" encoding="utf-8"?>
<!-- Generator: Adobe Illustrator 17.0.0, SVG Export Plug-In . SVG Version: 6.00 Build 0)  -->
<!DOCTYPE svg PUBLIC "-//W3C//DTD SVG 1.1//EN" "http://www.w3.org/Graphics/SVG/1.1/DTD/svg11.dtd">
<svg version="1.1" id="Layer_1" xmlns="http://www.w3.org/2000/svg" xmlns:xlink="http://www.w3.org/1999/xlink" x="0px" y="0px"
	 width="50px" height="50px" viewBox="0 0 50 50" enable-background="new 0 0 50 50" xml:space="preserve">
<g>
	<path fill="#FFFFFF" d="M26.227,24.339c0-1.198-0.126-2.305,0.029-3.37c0.242-1.66,1.405-2.884,2.452-4.076
		c1.152-1.313,2.485-2.475,3.795-3.639c2.429-2.159,4.87-4.308,7.362-6.395c2.156-1.806,4.398-3.511,6.582-5.284
		c0.632-0.513,1.317-0.439,1.879-0.091c0.605,0.375,1.033,0.996,0.669,1.813c-0.779,1.746-1.521,3.509-2.351,5.23
		c-1.039,2.153-2.103,4.297-3.242,6.398c-1.62,2.988-3.252,5.973-5.009,8.881c-0.965,1.597-2.077,3.185-3.985,3.82
		c-0.996,0.331-2.052,0.482-3.317,0.768c0.519,0.425,1.087,0.797,1.519,1.287c0.173,0.196,0.19,0.752,0.036,0.976
		c-0.577,0.837-1.214,1.643-1.909,2.385c-0.439,0.469-0.969,0.658-1.613,0.123c-1.821-1.514-3.7-2.957-5.539-4.45
		c-0.63-0.511-1.246-1.052-1.786-1.653c-0.164-0.183-0.189-0.712-0.044-0.914c0.683-0.948,1.4-1.883,2.199-2.733
		c0.561-0.597,1.081,0.024,1.563,0.295C25.778,23.859,25.978,24.114,26.227,24.339z"/>
	<path fill="#FFFFFF" d="M1.067,43.984c2.478,0.97,4.804,1.09,6.846-0.592c0.887-0.731,1.534-1.836,2.075-2.882
		c0.729-1.408,1.442-2.878,1.81-4.407c0.373-1.547,0.956-2.912,1.974-4.088c1.443-1.666,3.304-2.534,5.499-2.726
		c2.16-0.189,4.122,0.34,5.794,1.702c1.129,0.919,2.016,2.022,2.579,3.45c0.796,2.02,0.702,4.018,0.011,5.93
		c-0.435,1.202-1.43,2.197-2.144,3.304c-1.126,1.746-2.718,3.019-4.455,4.035c-1.256,0.735-2.712,1.18-4.128,1.579
		c-2.131,0.6-4.345,0.489-6.503,0.215c-3.089-0.392-5.882-1.602-8.194-3.734C1.727,45.303,1.45,44.586,1.067,43.984z M22.082,36.699
		c-0.665,0.42-1.23,0.757-1.775,1.125c-1.621,1.096-3.195,2.269-4.865,3.283c-1.018,0.619-1.116,0.496-1.183-0.713
		c-0.033-0.599-0.244-0.968-0.929-0.824c-0.41,0.086-0.823,0.16-1.307,0.253c-0.163,1.611-0.93,3.1-2.199,4.289
		c-1.275,1.195-2.793,1.928-4.678,1.882c3.382,3.098,14.227,2.891,16.685-1.181c-0.742-0.045-1.437-0.089-2.133-0.128
		c-0.559-0.031-0.871-0.283-0.59-0.843c0.416-0.832,0.875-1.645,1.358-2.44C21.313,40.012,22.241,38.659,22.082,36.699z"/>
</g>
</svg>
